<?xml version="1.0" encoding="utf-8"?>
<svg xmlns="http://www.w3.org/2000/svg" viewBox="0 0 335.238 204.486"
    xmlns:bx="https://boxy-svg.com" width="335.238px" height="204.486px">
    <defs>
        <linearGradient x1="240" y1="124.02277" x2="240" y2="235.9773" gradientUnits="userSpaceOnUse" id="color-1" gradientTransform="matrix(1.826522, 0, 0, 1.826522, -270.747169, -226.531639)">
            <stop offset="0" style="stop-color: rgb(175, 84, 60);"/>
            <stop offset="1" style="stop-color: rgb(218, 140, 120);"/>
        </linearGradient>
        <bx:export>
            <bx:file format="png" path="Sin título.png"/>
            <bx:file format="svg" path="Sin título.svg"/>
        </bx:export>
    </defs>
    <path d="M 0 204.486 L 0 0 L 335.238 0 L 335.238 204.486 L 0 204.486 Z" fill="url(#color-1)" stroke="none" stroke-width="0" stroke-linecap="butt" style=""/>
    <path fill="#BF6952" d="M 236.599 125.311 C 238.215 118.308 237.677 110.816 234.566 103.358 C 231.556 96.147 226.368 90.442 220.048 86.612 C 221.459 81.322 221.086 75.626 218.609 69.967 C 214.877 61.446 206.803 55.759 197.695 54.158 C 198.8 51.618 199.155 48.436 197.855 44.539 C 193.416 31.223 175.662 40.1 162.346 22.351 C 151.517 28.849 149.163 38.507 149.572 46.704 C 138.826 48.534 132.705 50.86 132.705 50.86 L 132.705 50.869 C 126.669 53.31 122.399 59.226 122.399 66.146 C 122.399 70.048 123.81 73.584 126.074 76.407 L 123.002 77.553 L 123.007 77.566 C 112.665 81.433 105.364 90.776 105.364 101.707 C 105.364 106.354 106.694 110.704 109.004 114.482 C 96.473 120.114 87.725 132.338 87.725 146.626 C 87.725 166.235 104.107 182.134 124.316 182.134 C 138.826 182.134 153.429 179.015 166.621 174.744 C 176.576 179.36 191.898 182.134 214.965 182.134 C 232.942 182.134 247.513 167.563 247.513 149.586 C 247.513 139.928 243.283 131.277 236.599 125.311 Z" style="stroke-linecap: round; stroke-miterlimit: 1; stroke-linejoin: round; stroke-opacity: 0.5; stroke: rgb(111, 68, 59); stroke-width: 18px;"/>
    <path fill="#BF6952" d="M 236.599 125.311 C 238.215 118.308 237.677 110.816 234.566 103.358 C 231.556 96.147 226.368 90.442 220.048 86.612 C 221.459 81.322 221.086 75.626 218.609 69.967 C 214.877 61.446 206.803 55.759 197.695 54.158 C 198.8 51.618 199.155 48.436 197.855 44.539 C 193.416 31.223 175.662 40.1 162.346 22.351 C 151.517 28.849 149.163 38.507 149.572 46.704 C 138.826 48.534 132.705 50.86 132.705 50.86 L 132.705 50.869 C 126.669 53.31 122.399 59.226 122.399 66.146 C 122.399 70.048 123.81 73.584 126.074 76.407 L 123.002 77.553 L 123.007 77.566 C 112.665 81.433 105.364 90.776 105.364 101.707 C 105.364 106.354 106.694 110.704 109.004 114.482 C 96.473 120.114 87.725 132.338 87.725 146.626 C 87.725 166.235 104.107 182.134 124.316 182.134 C 138.826 182.134 153.429 179.015 166.621 174.744 C 176.576 179.36 191.898 182.134 214.965 182.134 C 232.942 182.134 247.513 167.563 247.513 149.586 C 247.513 139.928 243.283 131.277 236.599 125.311 Z" style="stroke-linecap: round; stroke-miterlimit: 1; stroke-linejoin: round; stroke: rgb(255, 255, 255); stroke-width: 6px;"/>
    <g transform="matrix(1.181485, 0, 0, 1.181485, 15.650382, -5.811662)" style="">
        <path d="M 304 291.939 L 308.539 307.461 L 324.061 312 L 308.539 316.539 L 304 332.061 L 299.461 316.539 L 283.939 312 L 299.461 307.461 Z" bx:shape="star 304 312 20.061 20.061 0.32 4 1@d481a788" style="stroke-linecap: round; stroke-linejoin: round; stroke-miterlimit: 1; fill: rgb(255, 255, 255); stroke-opacity: 0.5; stroke: rgb(111, 68, 59); stroke-width: 9px;" transform="matrix(0, 1, -1, 0, 387.242706298825, -268.805816650386)"/>
        <path d="M 304 291.939 L 308.539 307.461 L 324.061 312 L 308.539 316.539 L 304 332.061 L 299.461 316.539 L 283.939 312 L 299.461 307.461 Z" bx:shape="star 304 312 20.061 20.061 0.32 4 1@d481a788" style="stroke-linecap: round; stroke-linejoin: round; stroke-miterlimit: 1; fill: rgb(255, 255, 255); stroke-opacity: 0.5; stroke: rgb(111, 68, 59); stroke-width: 0px;" transform="matrix(0, 1, -1, 0, 387.242706298825, -268.805816650386)"/>
    </g>
    <g transform="matrix(0.701994, 0, 0, 0.701994, 213.664139, 156.087891)" style="">
        <path d="M 304 291.939 L 308.539 307.461 L 324.061 312 L 308.539 316.539 L 304 332.061 L 299.461 316.539 L 283.939 312 L 299.461 307.461 Z" bx:shape="star 304 312 20.061 20.061 0.32 4 1@d481a788" style="stroke-linecap: round; stroke-linejoin: round; stroke-miterlimit: 1; fill: rgb(255, 255, 255); stroke-opacity: 0.5; stroke: rgb(111, 68, 59); stroke-width: 14.2451px;" transform="matrix(0, 1, -1, 0, 387.242706298825, -268.805816650386)"/>
        <path d="M 304 291.939 L 308.539 307.461 L 324.061 312 L 308.539 316.539 L 304 332.061 L 299.461 316.539 L 283.939 312 L 299.461 307.461 Z" bx:shape="star 304 312 20.061 20.061 0.32 4 1@d481a788" style="stroke-linecap: round; stroke-linejoin: round; stroke-miterlimit: 1; fill: rgb(255, 255, 255); stroke-opacity: 0.5; stroke: rgb(111, 68, 59); stroke-width: 0px;" transform="matrix(0, 1, -1, 0, 387.242706298825, -268.805816650386)"/>
    </g>
</svg>